<svg id="Capa_1" enable-background="new 0 0 512 512" height="512" viewBox="0 0 512 512" width="512" xmlns="http://www.w3.org/2000/svg"><path d="m273.599 0h-35.186c-15.08 0-29.663 6.291-40.01 17.262-10.347 10.97-15.777 25.895-14.896 40.949l15.322 262.002c1.699 29.04 25.816 51.789 54.906 51.789h4.542c29.09 0 53.208-22.748 54.907-51.789l15.321-262.003c.88-15.054-4.55-29.979-14.898-40.949-10.346-10.97-24.929-17.261-40.008-17.261zm24.957 56.459-15.321 262.002c-.772 13.2-11.735 23.541-24.958 23.541h-4.542c-13.223 0-24.185-10.34-24.957-23.541l-15.322-262.002c-.406-6.943 1.999-13.554 6.77-18.613 4.772-5.06 11.231-7.846 18.187-7.846h35.186c6.955 0 13.413 2.786 18.186 7.846 4.772 5.059 7.177 11.67 6.771 18.613z"/><path d="m256.006 402.001c-30.327 0-55 24.673-55 55 0 30.326 24.673 54.999 55 54.999s55-24.673 55-55c0-30.326-24.673-54.999-55-54.999zm0 79.999c-13.785 0-25-11.215-25-25 0-13.784 11.215-24.999 25-24.999s25 11.215 25 25c0 13.784-11.215 24.999-25 24.999z"/><path d="m158.956 252.273c-7.158-4.177-16.341-1.755-20.514 5.4-12.065 20.687-18.442 44.312-18.442 68.32 0 24.007 6.377 47.632 18.442 68.319 2.788 4.78 7.81 7.445 12.972 7.445 2.565 0 5.166-.659 7.542-2.044 7.156-4.174 9.574-13.358 5.401-20.515-9.393-16.104-14.357-34.503-14.357-53.205 0-18.703 4.964-37.102 14.357-53.207 4.173-7.156 1.755-16.341-5.401-20.513z"/><path d="m107.087 222.141c-7.157-4.174-16.341-1.754-20.514 5.401-17.384 29.811-26.573 63.855-26.573 98.451s9.189 68.639 26.574 98.45c2.788 4.78 7.81 7.446 12.972 7.446 2.565 0 5.166-.659 7.542-2.045 7.157-4.174 9.575-13.358 5.401-20.515-14.713-25.227-22.489-54.045-22.489-83.336s7.776-58.109 22.489-83.338c4.173-7.156 1.755-16.341-5.402-20.514z"/><path d="m30 325.993c0-39.938 10.564-79.192 30.55-113.522 4.168-7.159 1.743-16.342-5.417-20.51-7.16-4.17-16.342-1.743-20.51 5.416-22.65 38.907-34.623 83.383-34.623 128.616 0 45.234 11.973 89.709 34.623 128.615 2.786 4.786 7.812 7.456 12.978 7.456 2.562 0 5.159-.658 7.533-2.04 7.159-4.168 9.584-13.351 5.417-20.51-19.987-34.329-30.551-73.583-30.551-113.521z"/><path d="m353.199 252.472c-7.165 4.158-9.602 13.338-5.444 20.503 9.319 16.057 14.245 34.39 14.245 53.018 0 18.627-4.926 36.96-14.245 53.018-4.158 7.165-1.721 16.345 5.444 20.503 2.37 1.375 4.959 2.029 7.516 2.029 5.172 0 10.204-2.679 12.987-7.474 11.971-20.626 18.298-44.166 18.298-68.076s-6.327-47.451-18.298-68.077c-4.158-7.166-13.339-9.602-20.503-5.444z"/><path d="m425.565 227.777c-4.163-7.164-13.348-9.594-20.506-5.43-7.162 4.163-9.594 13.345-5.43 20.506 14.635 25.177 22.371 53.926 22.371 83.14 0 29.213-7.736 57.962-22.371 83.14-4.164 7.162-1.732 16.343 5.43 20.506 2.372 1.379 4.965 2.035 7.524 2.035 5.168 0 10.197-2.675 12.982-7.465 17.294-29.751 26.435-63.713 26.435-98.216 0-34.504-9.142-68.467-26.435-98.216z"/><path d="m477.512 197.607c-4.161-7.166-13.343-9.6-20.504-5.438-7.164 4.16-9.599 13.341-5.438 20.504 19.908 34.277 30.43 73.463 30.43 113.32s-10.522 79.043-30.43 113.319c-4.161 7.163-1.727 16.344 5.438 20.504 2.37 1.377 4.962 2.032 7.52 2.032 5.17 0 10.201-2.677 12.984-7.47 22.562-38.846 34.488-83.241 34.488-128.385 0-45.143-11.926-89.539-34.488-128.386z"/></svg>