<svg height="512" viewBox="0 0 60 60" width="512" xmlns="http://www.w3.org/2000/svg"><g id="Page-1" fill="none" fill-rule="evenodd"><g id="031---PPE-Signage" fill="rgb(0,0,0)" fill-rule="nonzero" transform="translate(-1)"><path id="Shape" d="m31 0c-14.3122401-.00019411-26.63153576 10.1097212-29.42389172 24.1469205s4.71993878 28.0921224 17.94266102 33.5693326c13.2227223 5.4772102 28.4731553.8512264 36.4247358-11.0488821 7.9515805-11.9001086 6.3896798-27.7599919-3.7305051-37.880371-5.6134534-5.64487702-13.2521577-8.80903555-21.213-8.787zm19.8 49.8c-9.4450679 9.4460317-24.2474463 10.9047407-35.3546557 3.4840451-11.10720936-7.4206955-15.42576566-21.6540475-10.31463097-33.9955679 5.11113467-12.3415203 18.22845127-19.35395529 31.32997947-16.74881002 13.1015281 2.60514526 22.5383434 14.10230822 22.5393072 27.46033282-.0029752 7.4255682-2.9520811 14.5465802-8.2 19.8z"/><path id="Shape" d="m45.8 11.121c.4338197.3426927 1.0633073.2688197 1.406-.165s.2688197-1.06330731-.165-1.406c-10.3446268-8.12337443-25.1274558-7.23755874-34.4280072 2.0629928-9.30055154 9.3005514-10.18636723 24.0833804-2.0629928 34.4280072.2216833.2806321.5762426.4216803.9301188.370013s.6533071-.2882006.7855-.6205c.1321929-.3322995.0770645-.7098809-.1446188-.990513-7.48399309-9.5488251-6.66064695-23.1821289 1.9181121-31.7608879 8.578759-8.57875905 22.2120628-9.40210519 31.7608879-1.9181121z"/><path id="Shape" d="m50.046 13.792c-.4311423.3413647-.5057476.9667985-.167 1.4 7.5000755 9.5476448 6.6843318 23.1935392-1.899771 31.7796811-8.5841028 8.5861418-22.2298032 9.4051265-31.779229 1.9073189-.4338197-.3418643-1.0626357-.2673197-1.4045.1665s-.2673197 1.0626357.1665 1.4045c10.3450714 8.1173303 25.123168 7.2286577 34.4209456-2.0698843 9.2977776-9.2985421 10.1852352-24.0767118 2.0670544-34.4211157-.3416535-.433703-.9701441-.5084594-1.404-.167z"/><path id="Shape" d="m31 39c-2.7614237 0-5 2.2385763-5 5s2.2385763 5 5 5 5-2.2385763 5-5c-.0033061-2.7600532-2.2399468-4.9966939-5-5zm0 8c-1.6568542 0-3-1.3431458-3-3s1.3431458-3 3-3 3 1.3431458 3 3-1.3431458 3-3 3z"/><path id="Shape" d="m35.126 10.807c-1.6238209-1.76030019-4.1852809-2.2971843-6.3792954-1.33710555-2.1940146.96007875-3.5378071 3.20586215-3.3467046 5.59310555l1.364 17.027c.1795222 2.20627 2.0224383 3.9053204 4.236 3.9053204s4.0564778-1.6990504 4.236-3.9053204l1.364-17.027c.122505-1.561995-.4116677-3.1043552-1.474-4.256zm-1.883 21.123c-.0925236 1.1702125-1.0691355 2.0726557-2.243 2.0726557s-2.1504764-.9024432-2.243-2.0726557l-1.357-17.03c-.1108943-1.3577964.5507471-2.6626819 1.7116128-3.3756332 1.1608656-.7129514 2.6239088-.7129514 3.7847744 0 1.1608657.7129513 1.8225071 2.0178368 1.7116128 3.3756332z"/></g></g></svg>