<svg id="Siren" enable-background="new 0 0 32 32" height="512" viewBox="0 0 32 32" width="512" xmlns="http://www.w3.org/2000/svg"><g><path d="m23.578 26v-9.001c0-4.179-3.399-7.578-7.578-7.578s-7.578 3.399-7.578 7.578v9.001zm-7.578-11.08c-1.146 0-2.078.932-2.078 2.078 0 .552-.448 1-1 1s-1-.447-1-1c0-2.249 1.83-4.078 4.078-4.078.552 0 1 .448 1 1s-.448 1-1 1z" fill="#f25949"/><path d="m16 12.92c-2.249 0-4.078 1.83-4.078 4.078 0 .552.448 1 1 1s1-.447 1-1c0-1.146.932-2.078 2.078-2.078.552 0 1-.448 1-1s-.448-1-1-1z" fill="#fff"/><path d="m25 26h-1.422-15.156-1.422c-.552 0-1 .447-1 1s.448 1 1 1h18c.553 0 1-.447 1-1s-.447-1-1-1z" fill="#8b9ca5"/><g fill="#fbc34e"><path d="m16 8.551c.552 0 1-.448 1-1v-2.551c0-.552-.448-1-1-1s-1 .448-1 1v2.551c0 .552.448 1 1 1z"/><path d="m29 17.231h-2.506c-.553 0-1 .447-1 1s.447 1 1 1h2.506c.553 0 1-.447 1-1s-.447-1-1-1z"/><path d="m6.506 18.231c0-.553-.448-1-1-1h-2.506c-.552 0-1 .447-1 1s.448 1 1 1h2.506c.552 0 1-.447 1-1z"/><path d="m7.866 11.38c.196.199.455.299.713.299.253 0 .506-.095.701-.287.394-.387.4-1.02.013-1.414l-1.772-1.803c-.388-.395-1.021-.4-1.414-.013-.394.387-.4 1.02-.013 1.414z"/><path d="m23.42 11.679c.259 0 .518-.1.713-.299l1.772-1.804c.388-.394.382-1.027-.012-1.414-.396-.387-1.028-.382-1.414.013l-1.772 1.804c-.388.394-.382 1.027.012 1.414.195.191.448.286.701.286z"/></g></g></svg>