<svg width="349" height="275" viewBox="0 0 349 275" fill="none" xmlns="http://www.w3.org/2000/svg">
<path d="M348.1 22.9H0.5V5.59998C0.5 3.29998 2.4 1.40002 4.7 1.40002H343.8C346.1 1.40002 348 3.29998 348 5.59998V22.9H348.1Z" fill="#FA4761" stroke="#1A2E35" stroke-miterlimit="10" stroke-linecap="round" stroke-linejoin="round"/>
<path d="M347.5 26.8H1.19995V274H347.5V26.8Z" fill="white" stroke="#1A2E35" stroke-miterlimit="10" stroke-linecap="round" stroke-linejoin="round"/>
<path d="M331.5 9.70001L338.2 16.3" stroke="white" stroke-miterlimit="10" stroke-linecap="round" stroke-linejoin="round"/>
<path d="M338.2 9.70001L331.5 16.3" stroke="white" stroke-miterlimit="10" stroke-linecap="round" stroke-linejoin="round"/>
<path d="M322.1 9.70001H315.4V16.4H322.1V9.70001Z" stroke="white" stroke-miterlimit="10" stroke-linecap="round" stroke-linejoin="round"/>
<path d="M298 12.3H306.1" stroke="white" stroke-miterlimit="10" stroke-linecap="round" stroke-linejoin="round"/>
<path d="M265.8 206.7H84.8C78.2 206.7 72.8 201.3 72.8 194.7V103.7C72.8 97.1 78.2 91.7 84.8 91.7H265.8C272.4 91.7 277.8 97.1 277.8 103.7V194.7C277.8 201.3 272.4 206.7 265.8 206.7Z" fill="white" stroke="#1A2E35" stroke-miterlimit="10" stroke-linecap="round" stroke-linejoin="round"/>
<path d="M261.9 199.7H87.6C83.8 199.7 80.7 196.6 80.7 192.8V107.5C80.7 103.7 83.8 100.6 87.6 100.6H261.9C265.7 100.6 268.8 103.7 268.8 107.5V192.8C268.8 196.6 265.7 199.7 261.9 199.7Z" stroke="#1A2E35" stroke-miterlimit="10" stroke-linecap="round" stroke-linejoin="round"/>
<path d="M144.1 169.1C146.2 171.3 146.2 174.6 144.1 176.7C143 177.7 141.7 178.2 140.4 178.2C139 178.2 137.6 177.7 136.5 176.7L112.7 152.6C112.4 152.5 112.4 152.3 112.3 152.1C112.2 152 112 151.9 112 151.9C111.8 151.6 111.8 151.5 111.7 151.2C111.5 151.1 111.4 150.9 111.4 150.9C111.3 150.7 111.3 150.5 111.2 150.4C111.2 150.1 111 150.1 111 150C111 149.7 111 149.6 111 149.4C111 149.2 110.9 149.1 110.9 148.9C110.9 148.8 111 148.6 111 148.5C111 148.3 111 148.1 111 147.9C111 147.7 111.2 147.6 111.2 147.6C111.3 147.3 111.3 147.2 111.4 146.9C111.4 146.8 111.5 146.8 111.5 146.7C111.7 146.4 111.8 146.1 111.9 145.9C111.9 145.9 111.9 145.7 112.1 145.7C112.2 145.5 112.4 145.3 112.6 145.1L136.4 121C138.5 119 142 119 144 121C146.1 123.1 146.1 126.5 144 128.6L123.9 148.8L144.1 169.1Z" fill="white" stroke="#1A2E35" stroke-miterlimit="10" stroke-linecap="round" stroke-linejoin="round"/>
<path d="M165.7 171.8L186.4 122.5C187.4 120.1 190.1 119 192.6 120C194.9 120.9 196 123.7 195 126L174.3 175.4C173.5 177.2 171.8 178.2 170 178.2C169.5 178.2 168.8 178.1 168.3 177.9C165.8 176.9 164.7 174.2 165.7 171.8Z" fill="white" stroke="#1A2E35" stroke-miterlimit="10" stroke-linecap="round" stroke-linejoin="round"/>
<path d="M236 151.9C236 151.9 236 152 236 151.9C235.7 152.2 235.6 152.4 235.3 152.6L211.5 176.7C210.5 177.7 209 178.2 207.7 178.2C206.3 178.2 205 177.7 203.9 176.7C201.8 174.6 201.8 171.3 203.9 169.1L224 148.9L203.9 128.7C201.8 126.6 201.8 123.2 203.9 121.1C205.9 119.1 209.4 119.1 211.5 121.1L235.3 145.2C235.6 145.4 235.7 145.6 235.9 145.8C236 145.8 236 146 236 146C236.2 146.3 236.3 146.5 236.4 146.8C236.4 146.9 236.5 146.9 236.5 147C236.6 147.3 236.6 147.4 236.8 147.8C236.8 147.9 236.9 147.9 236.9 148.1C236.9 148.3 236.9 148.5 236.9 148.7C236.9 148.8 237 149 237 149.1C237 149.2 236.9 149.4 236.9 149.5C236.9 149.8 236.9 149.9 236.9 150.2C236.9 150.3 236.8 150.3 236.8 150.4C236.6 150.7 236.6 151 236.5 151.2C236.5 151.3 236.4 151.3 236.4 151.5C236.3 151.3 236.1 151.6 236 151.9Z" fill="white" stroke="#1A2E35" stroke-miterlimit="10" stroke-linecap="round" stroke-linejoin="round"/>
</svg>
