<svg width="487" height="444" viewBox="0 0 487 444" fill="none" xmlns="http://www.w3.org/2000/svg">
<path d="M403.325 153.5H228.325V328.5H403.325V153.5Z" fill="white" stroke="#1A2E35" stroke-miterlimit="10" stroke-linecap="round" stroke-linejoin="round"/>
<path d="M325.025 301.9H306.425C305.825 301.9 305.425 301.4 305.425 300.8V278.3C305.425 277.7 305.925 277.2 306.425 277.2H325.025C325.625 277.2 326.025 277.7 326.025 278.3V300.8C326.025 301.4 325.625 301.9 325.025 301.9Z" fill="#E7E7E7"/>
<path d="M324.025 279.4H307.425V299.7H324.025V279.4Z" fill="#E7E7E7"/>
<path d="M325.025 271.5H306.425C305.925 271.5 305.425 271 305.425 270.4C305.225 267.5 305.225 265.6 305.225 265C305.225 261.6 305.525 258.5 306.025 255.7C306.525 252.9 307.325 250.4 308.325 248.1C309.325 245.8 310.925 243.4 312.925 240.9C314.925 238.4 317.525 235.8 320.525 233.1C326.625 227.5 330.025 224.2 331.125 222.7C332.825 220.2 333.625 217.6 333.625 214.7C333.625 210.7 332.025 207.1 329.125 204.3C326.125 201.3 322.225 199.9 316.925 199.9C312.025 199.9 307.925 201.4 304.425 204.5C301.125 207.7 298.825 212.6 297.625 219C297.525 219.6 297.025 220 296.525 219.9L277.625 217.2C277.125 217.1 276.725 216.6 276.725 216C277.325 206.2 281.225 197.6 288.225 190.7C289.925 188.9 291.925 187.4 293.925 186.1C295.925 184.8 298.125 183.7 300.525 182.8C302.825 181.9 305.325 181.3 307.925 180.8C310.525 180.4 313.225 180.2 316.125 180.2C319.125 180.2 322.025 180.4 324.625 180.9C327.325 181.3 329.925 182 332.325 182.9C334.725 183.8 337.025 184.9 339.125 186.2C341.225 187.5 343.225 189 344.925 190.8C346.725 192.6 348.325 194.4 349.625 196.3C350.925 198.2 352.125 200.2 353.025 202.3C353.925 204.4 354.625 206.5 355.025 208.7C355.525 210.9 355.725 213.2 355.725 215.5C355.725 218.1 355.325 220.7 354.625 223.2C353.925 225.6 352.925 228 351.625 230.4C350.425 232.6 348.325 235.3 345.625 238.4C342.925 241.4 339.325 244.9 335.125 248.8C330.825 252.9 328.325 255.9 327.325 258.2C326.625 259.7 325.925 263.1 326.025 270.6C326.025 270.6 326.025 270.6 326.025 270.7C326.025 271 325.625 271.5 325.025 271.5Z" fill="#E7E7E7"/>
<path d="M307.425 269.2H324.025C324.025 266.5 324.125 264.2 324.325 262.3C324.525 260 324.925 258.2 325.525 256.9C326.125 255.6 327.025 254.1 328.525 252.3C329.825 250.7 331.625 248.9 333.825 246.8C342.125 239.2 347.625 233.2 349.925 228.9C352.425 224.4 353.725 219.9 353.725 215.2C353.725 206.4 350.425 198.9 343.625 192.2C336.725 185.6 327.525 182.2 316.125 182.2C305.125 182.2 296.225 185.5 289.725 192.2C283.325 198.5 279.725 206.1 278.925 214.9L295.925 217.3C297.225 210.9 299.625 206 303.125 202.6C307.025 199.2 311.525 197.5 316.925 197.5C319.725 197.5 322.325 197.9 324.525 198.7C326.825 199.5 328.825 200.8 330.425 202.5C333.825 205.7 335.625 209.9 335.625 214.6C335.625 218 334.625 221.1 332.725 224C331.525 225.7 328.125 229 321.825 234.8C316.025 240 312.025 244.8 310.125 249C308.125 253.4 307.225 258.6 307.225 265C307.325 265.6 307.325 267 307.425 269.2Z" fill="#E7E7E7"/>
<path d="M127.325 231.5C162.119 231.5 190.325 203.294 190.325 168.5C190.325 133.706 162.119 105.5 127.325 105.5C92.5308 105.5 64.3247 133.706 64.3247 168.5C64.3247 203.294 92.5308 231.5 127.325 231.5Z" fill="white" stroke="#1A2E35" stroke-miterlimit="10" stroke-linecap="round" stroke-linejoin="round"/>
<path d="M170.325 209.5L228.325 267.5" stroke="#1A2E35" stroke-miterlimit="10" stroke-linecap="round" stroke-linejoin="round"/>
<path d="M140.625 225.9C164.373 225.9 183.625 206.648 183.625 182.9C183.625 159.152 164.373 139.9 140.625 139.9C116.877 139.9 97.625 159.152 97.625 182.9C97.625 206.648 116.877 225.9 140.625 225.9Z" fill="#FA4761"/>
<path d="M393.825 91.4L368.325 153.5" stroke="#1A2E35" stroke-miterlimit="10" stroke-linecap="round" stroke-linejoin="round"/>
<path d="M411.325 1L341.825 99.5H476.325L411.325 1Z" fill="white" stroke="#1A2E35" stroke-miterlimit="10" stroke-linecap="round" stroke-linejoin="round"/>
<path d="M271.625 84.4L271.725 77.8L266.725 77.3C266.425 76.2 266.025 75.2 265.525 74.3L268.725 70.5L264.025 65.8L260.225 69C259.325 68.5 258.325 68.1 257.225 67.7L256.825 62.7L250.225 62.6L249.725 67.6C248.625 67.9 247.625 68.3 246.725 68.8L242.925 65.6L238.225 70.3L241.425 74.1C240.925 75 240.525 76 240.125 77.1L235.125 77.5L235.025 84.1L240.025 84.6C240.325 85.7 240.725 86.7 241.225 87.6L238.025 91.4L242.725 96.1L246.525 92.9C247.425 93.4 248.425 93.8 249.525 94.2L249.925 99.2L256.525 99.3L257.025 94.3C258.125 94 259.125 93.6 260.025 93.1L263.825 96.3L268.525 91.6L265.325 87.8C265.825 86.9 266.225 85.9 266.625 84.8L271.625 84.4ZM253.325 88.7C249.025 88.7 245.625 85.2 245.625 80.9C245.625 76.6 249.125 73.2 253.425 73.2C257.725 73.2 261.125 76.7 261.125 81C261.125 85.3 257.625 88.7 253.325 88.7Z" fill="white" stroke="#1A2E35" stroke-miterlimit="10" stroke-linecap="round" stroke-linejoin="round"/>
<path d="M440.225 46L402.825 99H475.225L440.225 46Z" fill="#FA4761"/>
<path d="M261.325 87.8425L256.093 93.9808L260.293 98.2538C259.74 99.4966 259.36 100.639 259.081 101.955L253.181 102.937L253.75 110.922L259.804 111.007C260.28 112.233 260.844 113.409 261.58 114.484L258.067 119.399L264.205 124.631L268.478 120.432C269.721 120.985 270.864 121.364 272.18 121.644L273.161 127.543L281.147 126.974L281.231 120.921C282.457 120.444 283.633 119.881 284.709 119.144L289.624 122.657L294.856 116.519L290.657 112.246C291.209 111.003 291.589 109.861 291.868 108.545L297.768 107.563L297.199 99.5779L291.146 99.4932C290.669 98.2673 290.106 97.0915 289.369 96.0157L292.882 91.1006L286.744 85.8688L282.471 90.0679C281.228 89.5152 280.085 89.1358 278.769 88.8564L277.788 82.9566L269.802 83.5256L269.718 89.5789C268.492 90.0557 267.316 90.6191 266.24 91.3557L261.325 87.8425ZM281.477 98.147C285.35 101.454 285.885 107.38 282.491 111.303C279.184 115.175 273.258 115.71 269.335 112.316C265.463 109.009 264.928 103.083 268.322 99.1607C271.715 95.2385 277.605 94.8401 281.477 98.147Z" fill="white" stroke="#1A2E35" stroke-miterlimit="10" stroke-linecap="round" stroke-linejoin="round"/>
<path d="M482.625 268.7C483.025 267 483.225 265.3 483.225 263.5C483.225 250.7 472.825 240.3 460.025 240.3C457.925 240.3 455.925 240.6 454.025 241.1C450.225 234.3 442.925 229.8 434.625 229.8C422.825 229.8 413.125 239 412.425 250.6C411.325 250.4 410.225 250.3 409.025 250.3C399.725 250.3 392.025 257.4 391.025 266.4C385.525 266.5 381.125 271 381.125 276.5C381.125 282.1 385.625 286.6 391.225 286.6H476.225C481.825 286.6 486.325 282.1 486.325 276.5C486.325 273.3 484.925 270.5 482.625 268.7Z" fill="white" stroke="#1A2E35" stroke-miterlimit="10" stroke-linecap="round" stroke-linejoin="round"/>
<path d="M435.925 282.2V258.8" stroke="#1A2E35" stroke-miterlimit="10" stroke-linecap="round" stroke-linejoin="round"/>
<path d="M435.925 296.2V286.9" stroke="#1A2E35" stroke-miterlimit="10" stroke-linecap="round" stroke-linejoin="round"/>
<path d="M435.925 305V300" stroke="#1A2E35" stroke-miterlimit="10" stroke-linecap="round" stroke-linejoin="round"/>
<path d="M440.325 261.5L435.925 256L431.425 261.5" fill="white"/>
<path d="M440.325 261.5L435.925 256L431.425 261.5" stroke="#1A2E35" stroke-miterlimit="10" stroke-linecap="round" stroke-linejoin="round"/>
<path d="M296.625 328.9L334.225 384.5" stroke="#1A2E35" stroke-miterlimit="10" stroke-linecap="round" stroke-linejoin="round"/>
<path d="M438.825 179C444.624 179 449.325 174.299 449.325 168.5C449.325 162.701 444.624 158 438.825 158C433.026 158 428.325 162.701 428.325 168.5C428.325 174.299 433.026 179 438.825 179Z" fill="white" stroke="#1A2E35" stroke-miterlimit="10" stroke-linecap="round" stroke-linejoin="round"/>
<path d="M194.025 315.5L182.325 333.8L194.025 354.4L205.325 333.5L194.025 315.5Z" fill="white" stroke="#1A2E35" stroke-miterlimit="10" stroke-linecap="round" stroke-linejoin="round"/>
<path d="M387.625 384.3H315.925V443.1H387.625V384.3Z" fill="white" stroke="#1A2E35" stroke-miterlimit="10" stroke-linecap="round" stroke-linejoin="round"/>
<path d="M315.925 384.3L387.625 443.1" stroke="#1A2E35" stroke-miterlimit="10" stroke-linecap="round" stroke-linejoin="round"/>
<path d="M387.625 384.3L315.925 443.1" stroke="#1A2E35" stroke-miterlimit="10" stroke-linecap="round" stroke-linejoin="round"/>
<path d="M401.725 365.8H352.625C351.425 365.8 350.425 366.8 350.425 368.1V392C350.425 393.2 351.425 394.3 352.625 394.3H374.625L377.125 403.7L379.625 394.3H401.625C402.825 394.3 403.825 393.3 403.825 392V368.1C403.825 366.8 402.925 365.8 401.725 365.8Z" fill="white" stroke="#1A2E35" stroke-miterlimit="10" stroke-linecap="round" stroke-linejoin="round"/>
<path d="M360.625 373.9H392.925" stroke="#1A2E35" stroke-width="2" stroke-miterlimit="10" stroke-linecap="round" stroke-linejoin="round"/>
<path d="M360.625 379.8H392.925" stroke="#1A2E35" stroke-width="2" stroke-miterlimit="10" stroke-linecap="round" stroke-linejoin="round"/>
<path d="M360.625 385.7H392.925" stroke="#1A2E35" stroke-width="2" stroke-miterlimit="10" stroke-linecap="round" stroke-linejoin="round"/>
<path d="M1.425 350.7C3.325 350.7 3.325 347.7 1.425 347.7C-0.475 347.7 -0.475 350.7 1.425 350.7Z" fill="#1A2E35"/>
</svg>
