<svg width="350" height="275" viewBox="0 0 350 275" fill="none" xmlns="http://www.w3.org/2000/svg">
<path d="M348.6 22.5H1V5.2C1 2.9 2.9 1 5.2 1H344.3C346.6 1 348.5 2.9 348.5 5.2V22.5H348.6Z" fill="#FA4761" stroke="#1A2E35" stroke-miterlimit="10" stroke-linecap="round" stroke-linejoin="round"/>
<path d="M348 26.5H1.69995V273.7H348V26.5Z" fill="white" stroke="#1A2E35" stroke-miterlimit="10" stroke-linecap="round" stroke-linejoin="round"/>
<path d="M332 9.29999L338.7 16" stroke="white" stroke-miterlimit="10" stroke-linecap="round" stroke-linejoin="round"/>
<path d="M338.7 9.29999L332 16" stroke="white" stroke-miterlimit="10" stroke-linecap="round" stroke-linejoin="round"/>
<path d="M322.6 9.29999H315.9V16H322.6V9.29999Z" stroke="white" stroke-miterlimit="10" stroke-linecap="round" stroke-linejoin="round"/>
<path d="M298.5 12H306.6" stroke="white" stroke-miterlimit="10" stroke-linecap="round" stroke-linejoin="round"/>
<path d="M108.9 196.4H214.2L246.6 89.3H264.9C267.1 89.3 268.8 87.5 268.8 85.4C268.8 83.2 267 81.5 264.9 81.5H240.7L208.3 188.6H114.5L88.3999 114.7C87.6999 112.7 85.3999 111.6 83.3999 112.3C81.3999 113 80.2999 115.3 80.9999 117.3L108.9 196.4Z" fill="white" stroke="#1A2E35" stroke-miterlimit="10" stroke-linecap="round" stroke-linejoin="round"/>
<path d="M208.2 128.7L194.9 173.5C194.4 175.1 192.9 176.3 191.2 176.3H130C128.4 176.3 126.9 175.3 126.4 173.7L110.9 128.9C110 126.4 111.9 123.8 114.5 123.8H204.5C207 123.7 208.9 126.2 208.2 128.7Z" fill="white" stroke="#1A2E35" stroke-miterlimit="10" stroke-linecap="round" stroke-linejoin="round"/>
<path d="M124.1 210.6C124.1 214.6 120.9 217.8 116.9 217.8C112.9 217.8 109.7 214.6 109.7 210.6C109.7 206.6 112.9 203.4 116.9 203.4C120.9 203.4 124.1 206.7 124.1 210.6Z" fill="white" stroke="#1A2E35" stroke-miterlimit="10" stroke-linecap="round" stroke-linejoin="round"/>
<path d="M209 210.6C209 214.6 205.8 217.8 201.8 217.8C197.8 217.8 194.6 214.6 194.6 210.6C194.6 206.6 197.8 203.4 201.8 203.4C205.8 203.4 209 206.7 209 210.6Z" fill="white" stroke="#1A2E35" stroke-miterlimit="10" stroke-linecap="round" stroke-linejoin="round"/>
<path d="M84.6 108.5H224.7C226.9 108.5 228.6 106.7 228.6 104.6C228.6 102.4 226.8 100.7 224.7 100.7H84.6C82.4 100.7 80.7 102.5 80.7 104.6C80.7 106.8 82.5 108.5 84.6 108.5Z" fill="white" stroke="#1A2E35" stroke-miterlimit="10" stroke-linecap="round" stroke-linejoin="round"/>
</svg>
